<svg width="200" height="200" viewBox="-100 -100 200 200" xmlns="http://www.w3.org/2000/svg">
  <g transform="rotate(0)"><path d="M 0 -25 L 15 -55 L 0 -75 L -15 -55 Z" fill="#3b82f6" stroke="none"/></g>
  <g transform="rotate(45)"><path d="M 0 -25 L 15 -55 L 0 -75 L -15 -55 Z" fill="#3b82f6" stroke="none"/></g>
  <g transform="rotate(90)"><path d="M 0 -25 L 15 -55 L 0 -75 L -15 -55 Z" fill="#3b82f6" stroke="none"/></g>
  <g transform="rotate(135)"><path d="M 0 -25 L 15 -55 L 0 -75 L -15 -55 Z" fill="#3b82f6" stroke="none"/></g>
  <g transform="rotate(180)"><path d="M 0 -25 L 15 -55 L 0 -75 L -15 -55 Z" fill="#3b82f6" stroke="none"/></g>
  <g transform="rotate(225)"><path d="M 0 -25 L 15 -55 L 0 -75 L -15 -55 Z" fill="#3b82f6" stroke="none"/></g>
  <g transform="rotate(270)"><path d="M 0 -25 L 15 -55 L 0 -75 L -15 -55 Z" fill="#3b82f6" stroke="none"/></g>
  <g transform="rotate(315)"><path d="M 0 -25 L 15 -55 L 0 -75 L -15 -55 Z" fill="#3b82f6" stroke="none"/></g>
</svg>